<?xml version="1.0" encoding="utf-8"?>
<!-- Generator: Adobe Illustrator 22.0.1, SVG Export Plug-In . SVG Version: 6.00 Build 0)  -->
<svg version="1.1" id="Calque_1" xmlns="http://www.w3.org/2000/svg" xmlns:xlink="http://www.w3.org/1999/xlink" x="0px" y="0px"
	 viewBox="0 0 100 100" style="enable-background:new 0 0 100 100;" xml:space="preserve">
<style type="text/css">
	.st0{fill:#FFFFFF;}
</style>
<g>
	<path class="st0" d="M87.8,19H12.7c-0.7,0-1.2,0.5-1.2,1.2v58.7c0,0.7,0.6,1.2,1.2,1.2h75.1c0.7,0,1.2-0.5,1.2-1.2V20.2
		C89,19.5,88.5,19,87.8,19L87.8,19z M81.6,70.4L64.7,52.9c-0.2-0.2-0.5-0.2-0.7,0L52.3,63.1l-15-18.4c-0.1-0.1-0.2-0.2-0.4-0.2
		c-0.2,0-0.3,0.1-0.4,0.2L18.8,68.5V26.4h62.8V70.4z M81.6,70.4"/>
	<path class="st0" d="M63.1,44.1c3.3,0,6-2.7,6-6c0-3.3-2.7-6-6-6c-3.3,0-6,2.7-6,6C57,41.4,59.7,44.1,63.1,44.1L63.1,44.1z
		 M63.1,44.1"/>
</g>
</svg>
