<?xml version="1.0" encoding="utf-8"?>
<!-- Generator: Adobe Illustrator 22.0.1, SVG Export Plug-In . SVG Version: 6.00 Build 0)  -->
<svg version="1.1" id="Calque_1" xmlns="http://www.w3.org/2000/svg" xmlns:xlink="http://www.w3.org/1999/xlink" x="0px" y="0px"
	 viewBox="0 0 700 800" style="enable-background:new 0 0 700 800;" xml:space="preserve">
<g>
	<path d="M237.2,295.4c2.4-5.3,4.5-17.6,3.1-25.8c-1.5-8.2-3.1-49.6,1.5-60.5c4.5-10.9-0.9-31.1,11.3-50.9
		c12.2-19.8,40-19.1,40-19.1s26.2-8.5,29.8-13.8c3.6-5.3,1.8-28.2,1.8-28.2c-7.1-5.3-7.8-20.7-7.8-20.7s-0.5,2.7-3.3,0.9
		c-2.7-1.8-3.6-20.2-2.9-21.8c0.7-1.6,3.8-1.1,3.8-1.1s-4.4-24,3.1-36.3C324.9,5.8,342.6,4,349.5,4c6.9,0,24.5,1.8,32,14.2
		c7.4,12.4,3.1,36.3,3.1,36.3s3.1-0.5,3.8,1.1c0.7,1.6-0.2,20-2.9,21.8c-2.7,1.8-3.3-0.9-3.3-0.9s-0.7,15.4-7.8,20.7
		c0,0-1.8,22.9,1.8,28.2c3.6,5.3,29.8,13.8,29.8,13.8s27.8-0.7,40,19.1c12.2,19.8,6.7,40,11.3,50.9c4.5,10.9,2.9,52.3,1.5,60.5
		c-1.5,8.2,0.7,20.5,3.1,25.8c2.4,5.3-4.9,91.6-3.8,103.4c1.1,11.8,4.9,43.6,3.5,46.3c-1.5,2.7-11.1,27.1-21.1,28.5
		c0,0-7.3,5.3-9.8,3.6c-2.5-1.6,0.5-5.3,0.5-5.3s-2,0.4-3.3-0.9c-1.3-1.3,9.6-11.8,9.6-11.8s-5.5,2.4-7.3,0.2
		c-1.8-2.2,14-10.5,16.7-16.7s-0.9-10.2-0.9-10.2l-4.5,2.2c0,0-4.4,14.4-7.4,14.5c-3.1,0.2-5.1,0.2-2.5-16.7c0,0-3.6-12.5-0.7-18.2
		c2.9-5.6,6.2-7.1,6.2-13.1c0-6-8.9-37.2-11.8-54.5c-2.9-17.3,2.5-50.9-0.4-57.4c-2.9-6.5-6.4-22-6.5-33.1
		c-0.2-11.1-3.1-25.8-5.8-29.4c-2.7-3.6,1.2,21.1-4.9,36.9c-6.1,15.8-1.9,43.2,1,55c2.9,11.8,12.5,78.1,13.4,102.3
		c0.9,24.2-6,113.7-5.1,126.6c0.9,12.9,7.1,31.1,7.1,68.1c0,37.1-6.2,40.1-11.4,55.6c-5.3,15.4-10.5,55.6-10,63c0,0,3.2,5.3,3.3,8.4
		c0.1,3.1-0.1,6.9,1,10.7c1.1,3.8,12.2,30.7,8.9,34.5c-3.3,3.8-22.5,4.2-29.3,3.6c0,0-1.6,3.1-8.4,2c-6.7-1.1-5.8-24.7-3.8-37.1
		c2-12.4-3.8-15.4-2-23.3c1.8-7.8,5.3-11.3,5.6-14.7c0.4-3.5,3.1-43.6-1.6-63c-4.7-19.4-4-49.1,0.5-62.1c4.5-13.1-2.2-20.3-7.1-36.2
		c-4.9-15.8-7.4-54.1-7.4-71c0-16.9-5.6-28.7-8.4-38.5c-2.7-9.8-2.4-24-2.4-24l-2.2-0.9l-2.2,0.9c0,0,0.4,14.2-2.4,24
		c-2.7,9.8-8.4,21.6-8.4,38.5c0,16.9-2.5,55.2-7.4,71c-4.9,15.8-11.6,23.1-7.1,36.2c4.5,13.1,5.3,42.7,0.5,62.1
		c-4.7,19.4-2,59.6-1.6,63c0.4,3.5,3.8,6.9,5.6,14.7c1.8,7.8-4,10.9-2,23.3c2,12.4,2.9,36-3.8,37.1c-6.7,1.1-8.4-2-8.4-2
		c-6.7,0.5-26,0.2-29.3-3.6c-3.3-3.8,7.8-30.7,8.9-34.5c1.1-3.8,0.9-7.6,1-10.7c0.1-3.1,3.3-8.4,3.3-8.4c0.5-7.4-4.7-47.6-10-63
		c-5.3-15.4-11.4-18.5-11.4-55.6c0-37.1,6.2-55.2,7.1-68.1c0.9-12.9-6-102.5-5.1-126.6c0.9-24.2,10.5-90.5,13.4-102.3
		c2.9-11.8,7.1-39.2,1-55c-6.1-15.8-2.1-40.5-4.9-36.9c-2.7,3.6-5.6,18.3-5.8,29.4c-0.2,11.1-3.6,26.5-6.5,33.1
		c-2.9,6.5,2.5,40.2-0.4,57.4c-2.9,17.3-11.8,48.5-11.8,54.5c0,6,3.3,7.4,6.2,13.1c2.9,5.6-0.7,18.2-0.7,18.2
		c2.5,16.9,0.5,16.9-2.5,16.7c-3.1-0.2-7.4-14.5-7.4-14.5l-4.5-2.2c0,0-3.6,4-0.9,10.2s18.5,14.5,16.7,16.7
		c-1.8,2.2-7.3-0.2-7.3-0.2s10.9,10.5,9.6,11.8c-1.3,1.3-3.3,0.9-3.3,0.9s3.1,3.6,0.5,5.3c-2.5,1.6-9.8-3.6-9.8-3.6
		c-10-1.5-19.6-25.8-21.1-28.5c-1.5-2.7,2.4-34.5,3.5-46.3C242.1,387,234.8,300.7,237.2,295.4z"/>
</g>
</svg>
