<?xml version="1.0" encoding="utf-8"?>
<!-- Generator: Adobe Illustrator 22.0.1, SVG Export Plug-In . SVG Version: 6.00 Build 0)  -->
<svg version="1.1" id="Calque_1" xmlns="http://www.w3.org/2000/svg" xmlns:xlink="http://www.w3.org/1999/xlink" x="0px" y="0px"
	 viewBox="0 0 700 800" style="enable-background:new 0 0 700 800;" xml:space="preserve">
<g>
	<path d="M250,402.5c0,0,3.9-10.6,3.2-56.1c-0.7-45.5,3.5-54,5.3-62.8c1.8-8.8,4.6-38.8,6.3-74.1c1.8-35.3,5.6-35.3,10.2-43.7
		c4.6-8.5,39.9-16.6,44.8-18.7c4.9-2.1,10.9-6.7,11.6-10.6c0.7-3.9,0-22.2,0-22.2c-9.9-9.2-10.9-24.2-10.9-24.2
		c-3.5,0.2-3.9-5.5-4-7.4c-0.1-1.9-2.5-10.3-2.3-14.5c0.1-4.2,5.3-2.7,5.3-2.7c0-33.2,17.2-36.5,29.2-36.5c12,0,29.2,3.3,29.2,36.5
		c0,0,5.2-1.5,5.3,2.7c0.1,4.2-2.2,12.6-2.3,14.5c-0.1,1.9-0.5,7.6-4,7.4c0,0-1,15-10.9,24.2c0,0-0.7,18.3,0,22.2
		c0.7,3.9,6.7,8.5,11.6,10.6c4.9,2.1,40.2,10.2,44.8,18.7c4.6,8.5,8.5,8.5,10.2,43.7c1.8,35.3,4.6,65.2,6.3,74.1
		c1.8,8.8,6,17.3,5.3,62.8c-0.7,45.5,3.2,56.1,3.2,56.1s6.4,31.7,2.8,39.1c-3.5,7.4-7.8,12.7-9.9,12.3c-2.1-0.4-1.1-4.2-1.1-4.2
		s-8.8,5.7-10.9,4.2c-2.1-1.4-2.8-0.4-4.6-2.8c-1.8-2.5,1.4-4.9,1.4-4.9s-2.1-0.7-3.5-2.5c-1.4-1.8,9.9-8.1,9.9-16.9
		c0-8.8-1.8-18.7,1.1-28.9c2.8-10.2-12.7-39.5-15.2-70.5c-2.5-31,0.7-30.7-1.8-40.9c-2.5-10.2-13-46.6-13-58.9c0-0.5,0-1,0-1.4
		c0,0-2.8,17.3-7.4,22.6c-4.6,5.3-7.1,39.1-5.6,43.4c1.4,4.2,27.2,61.7,26.8,99.5c-0.4,37.7-17.2,108.3-16.4,120.6
		c0.8,12.3,5.4,49.7,5.8,80.1c0.4,30.3-20.5,101.6-19.7,133c0.7,31.4,12.7,51.5,9.2,57.1c-3.5,5.6-14.8,9.2-18.7,9.2
		c0,0-2.8,3.5-7.8,2.1c-4.9-1.4-6.3-13.4-5.3-26.5c1.1-13,0.7-30.3-1.8-37.7c-2.5-7.4,8.8-17.3,7.1-28.9
		c-1.8-11.6,2.1-20.8-2.8-51.8c-4.9-31-3.9-62.4-0.7-77.6c3.2-15.2-3.9-48.3-6.7-58.2c-2.8-9.9-9.8-82.8-9.8-82.8s-7,73-9.8,82.8
		c-2.8,9.9-9.9,43-6.7,58.2c3.2,15.2,4.2,46.6-0.7,77.6c-4.9,31-1.1,40.2-2.8,51.8c-1.8,11.6,9.5,21.5,7.1,28.9
		c-2.5,7.4-2.8,24.7-1.8,37.7c1.1,13-0.4,25-5.3,26.5c-4.9,1.4-7.8-2.1-7.8-2.1c-3.9,0-15.2-3.5-18.7-9.2
		c-3.5-5.6,8.5-25.7,9.2-57.1c0.7-31.4-20.1-102.6-19.8-133c0.4-30.3,4.9-67.7,5.8-80.1c0.8-12.3-16-82.9-16.4-120.6
		c-0.4-37.7,25.4-95.2,26.8-99.5c1.4-4.2-1.1-38.1-5.6-43.4c-4.6-5.3-7.4-22.6-7.4-22.6c0,0.4,0,0.9,0,1.4
		c0,12.3-10.6,48.7-13.1,58.9c-2.5,10.2,0.7,9.9-1.8,40.9c-2.5,31-18,60.3-15.2,70.5c2.8,10.2,1.1,20.1,1.1,28.9
		c0,8.8,11.3,15.2,9.9,16.9c-1.4,1.8-3.5,2.5-3.5,2.5s3.2,2.5,1.4,4.9c-1.8,2.5-2.5,1.4-4.6,2.8c-2.1,1.4-10.9-4.2-10.9-4.2
		s1.1,3.9-1.1,4.2c-2.1,0.4-6.3-4.9-9.9-12.3C243.6,434.3,250,402.5,250,402.5z"/>
</g>
</svg>
