<?xml version="1.0" encoding="utf-8"?>
<!-- Generator: Adobe Illustrator 22.0.1, SVG Export Plug-In . SVG Version: 6.00 Build 0)  -->
<svg version="1.1" id="Calque_1" xmlns="http://www.w3.org/2000/svg" xmlns:xlink="http://www.w3.org/1999/xlink" x="0px" y="0px"
	 viewBox="0 0 1920 1080" style="enable-background:new 0 0 1920 1080;" xml:space="preserve">
<style type="text/css">
	.st0{fill:#696969;}
</style>
<g>
	<path class="st0" d="M680.7,647.8c-1.6-1.5-33.1-31.9-40.9-42.6c-7.6-10.8-22.1-13.7-29.9-18c-7.8-4.4-58.8-22.4-70.8-13.1
		c-12.1,9.6-28.8,15.1-35.3,0c-6.2-15.1-9.5-17.2-18.6-19.5c-8.9-2-4.3-13.7-4.8-23.8c-0.8-10.2-5.9-20.9-12.4-13.7
		c-6.1,7.3-28,26.2-31.2,16.6c-3.2-9.3-18.6-48.2,4.6-55.4c22.9-7.3,42-2.9,47.9,3.5c5.7,6.3,9.9,24.7,17.2,22.3
		c7-2.3,3.2-16,5.7-27.3c2.7-11.6,19.4-26.7,27-42.6c7.5-16,8.9-25.3,18.3-29.6c9.7-4.3,14.8-10.1,23.7-17.4
		c9.2-7.3,23.2-13.6,28.3-17.1c5.1-3.8,28-16,35.9-14c7.5,2.3,12.6-0.6,6.2-12.8c-6.2-12.5-14.6-49.3-26.7-65.8
		c-12.1-16.6-13.5-21-19.2-36.6c-5.9-15.9-12.3-29.6-16.7-18.9c-4.6,10.8-14,25.3-19.1,11.7c-5.1-14-4.6-13.1-11-19.5
		c-6.2-6.7-11.6-8.1-20.5-11c-8.9-3-17.8,0.8-17.2,10.1c0.8,9.3-8.3,26.2-2.4,38.3c5.7,12.5,10.8,25.3,3.2,29.6
		c-7.9,4.4,0,30.5-7.9,29.6c-7.5-0.6-11.3,0.8-11.3-8.7c0-9.3,3.8-23.8-10.5-23.8c-14,0-22.1-7.8-32.4-16
		c-10.2-7.8-18.6-3.4-16.1-21.5c2.7-18-1.1-24.7,10.2-34.5c11.6-10.2,14.3-16,22.3-11.7c8.4,4.4,14.1,4.4,19.5-0.8
		c5.1-5,14.6-3,14.6-9.3c0-6.4-10.8-6.4-9.5-17.2c1.1-11,6.2-5.2,8.1-23.2c1.9-18.1-12.1-45.6-26.1-41.8
		c-14,3.5-35.8,24.4-40.1,15.1c-4.6-9.3-13.4-5.2-30.7,1.5c-17.2,6.4-88.9-6.4-94-13.1c0,0-12.1-9.3-18.6-4.4
		c-6.2,5.3-31.8,2.9-39.6,1.5c-7.8-1.5-14.8,9.6-24.3,5.8c-9.7-3.5-43.4-10.8-51.2-16.6c-7.8-5.8-19.1-5.8-24.3-8.7
		c-5.1-2.9-23.7-4.3-27.5,1.5c-3.8,5.8-17.8,16-25,23.2c-7,7.3-15.1,5.8-8.1,20.9c7,15.2-18.1,24.4-11.6,40.9
		c6.1,16.6-1.4,61.5,24.2,70c25.6,8.7,46.6,13.9,61.5,0.8c14.8-13,37.2-13,44.1,1.5c7,14.5,10.8,36,33.7,48.4
		c22.9,12.2,42.8,47.6,41.5,63.3c-1,16,0.8,68.5,24.3,99c23.7,30.2,47.9,85,49.8,72c1.9-12.8,1.9-25.9,7.3-16.6
		c4.8,9.6,18.3,38.3,40.1,43.2c21.8,5.2,32.6,6.7,41,15.4c8.1,8.7,15.3,13.7,24.2,18c8.9,4.4,30.8,17.5,35,25.9
		c4.6,8.7,2.7,20.3-1.9,33.4c-4.3,13.1-9.5,25.9-3.2,38.3c6.5,12.2,19.9,47.5,30.7,55.4c11,8.1,21.9,20.9,19.2,38.9
		c-2.5,18-14.6,95.5-13.2,112.6c1.1,17.4-14.8,74.3-1.9,97.5c12.6,23,34.5,30.2,43.9,27.3c9.7-3,2.1-3.5-2.5-14.6
		c-4.6-10.7-4-24.4,1.4-34.5c5.1-10.1,5.1-15.9,2.4-27.3c-2.4-11.6-1.3-18.3,5.1-26.7c6.5-8.7,33.2-31.9,41.5-42.1
		c8.3-9.8,60.9-79.2,67.9-85c7-5.8,22.9-19.5,28-41.2c5.2-21.5,23.7-64.1,11.1-74.9C730.1,657.1,683,649.3,680.7,647.8z"/>
	<path class="st0" d="M808.8,39c3.5-7.9,12.3-27,17.2-37.4H623.4c2.4,11.6,11.3,54.5,9.7,71.9c-2.1,20.4,3.8,13.1,8.9,21.2
		c5.1,7.8,3.7,20,0.6,29.3c-3.2,9.6-5.2,30.5,5.1,54.8c10.2,24.7,22.4,55.7,32.6,57.2c10.3,1.4,7.9,17.1,14.8,11.3
		c7-5.8,8.1-18.6,14-37.4c5.7-18.6,5.7-32.5,20.5-41.8c14.8-9.3,55.5-39.7,64.7-50.5c8.9-10.7,19.1-15.1,15.9-33.9
		C806.8,65.1,803.7,49.7,808.8,39z"/>
	<path class="st0" d="M1833,153.9c-0.8-7.5-19.4-24.1-26.9-29.9c-7.9-5.8-53.9-45.2-73.6-40.3c-19.9,5.2-55-11.6-60.8-15.1
		c-5.7-3.5-52.8-19.2-77.9-20.3c-12.4-0.3-64.4-12.8-86.2-23c-21.9-10.2-40.4-59.8-82-51.9c-5.4,1.1-55.5,8.7-68.2,20.9
		c-13,12.5-18.6,26.7-25.6,29.6c-7,3-27.5,1.5-27.5,12.3c0,11,7,44.1-1.3,37.7c-8.3-6.6-16.7-21.8-20.5-10.1
		c-3.8,11.6-10.2,18-14,13.6c-3.8-4.3-23.2,0-25.6,7.3c-2.4,7.3-27.5,23.8-38.3,26.1c-11,2.1-15.4,7.9-21.3,10.8
		c-5.7,2.9-49,24.7-57.4,16.6c-8.3-7.9-10.8-2.9-15.9-1.5c0,0-15.4-2.9-25-15.7c-9.7-13.1-11.6-8.7-22.4-20.9
		c-10.8-12.5-13.5-24.7-24.2-19.5c-10.8,5-56.8,56-74.9,79.3c-17.8,22.9-49.6,46.7-33.7,63.2c15.9,16.9,24.2,14.5,26.1,23.8
		c2.1,9.6,4,19.8,6.4,23.3c2.4,3.8,17.8,16.6,25.6-0.6c7.9-17.4,8.9-29.6,17.8-26.7c9.2,2.6,10.8,9.3,6.5,22.4
		c-4.6,13-7.8,33.1-23.2,32.2c-15.1-0.6-31.8-10.7-36.9-8.4c-5.1,2-8.3,7.3-14,12.2c-5.9,4.9-23.7,28.8-35.9,32.5
		c-12.1,3.5-26.9,0.6-18.6,11.4c8.3,11,20.5,34.8,8.9,34c-11.3-0.6-30.8-2.9-31.8,9.6c-1.4,12.2-6.5,19.4-3.8,27.9
		c2.4,8.7,10.8,25.5,21,19.7c10.2-5.8,29.9-11.6,35-24.7c5.2-13,11.1-27.3,23.7-26.7c12.7,0.9,43.7,18.9,41.5,25.3
		c-1.9,6.4-8.1,21.8-0.6,16.5c7.5-4.9,14-10.7,18.6-12.7c4.3-2.4,10.2,7.2,12.1,10.7c1.9,3.8,14.6,10.8,17.2-0.9
		c2.4-11.3,5.2-2.6,12.7,0.9c7.8,3.8,30.7,6.4,33.9,9.3c3.2,2.9,10.3,11.6,1.4,23.3c-9.2,11.3-19.5,15.9-34,7.2
		c-14.8-8.7-30.7,7.3-47.1-1.4c-16.7-8.7-9.2-21-28.8-29.6c-19.7-8.7-64.7,2.1-78.7,6.4c-14,4.4-14.8,5.8-20.5,13.1
		s-43.4,54-43.4,80.7c0,26.7,14.1,99,59.3,91.7c45.5-7.2,73-2.9,67.9,11.4c-5.1,14.5-2.4,18.3,5.7,34.8
		c8.3,16.6,27.5,126.8,30.8,144.9c3.2,18.3-2.5,41.2,18.6,37.7c21.3-3.7,43.7-9.5,52.3-30.5c9.2-20.9,10.5-44.7,21.8-56.8
		c11.6-12.2,25.6-12.2,27-29.6c1.1-17.4-3.2-58.3,4.6-67.9c7.6-9.3,43.4-52.5,47.2-69.9c3.8-17.2,8.9-21.5-5.7-21.5
		c-14.8,0-39.9-2.4-46.9-16.6c-7-14.5-23.7-42.1-23.7-48.4c0-6.4,10.3-5.8,15.4,7.8c5.1,13.7,23.2,54.8,43.7,46.1
		c20.2-8.7,49-18.6,49.9-32.5c0.5-13.7-9.2-29.3-19.5-28.8c-10.2,0.9-21-7.3-21-15.1c0-7.9,1.9-4.9,14,0
		c12.1,4.9,16.1,13.7,34.5,15.1c18.6,1.5,39.6,20.9,49.8,29.6c10.3,8.8,28.4,68,32.6,73.8c4.6,5.8,9.7,5.8,14.3-5.8
		c4.3-11.7,23.5-48.5,34.5-58.7c10.8-9.8,11.3-23.8,17.8-15.1c6.5,8.8,33.9,30.5,35.8,43.2c1.9,13.1-1.3,41.2,4.3,32.5
		c5.9-8.7,10.5-26.7,15.4-18.6c5.1,7.8,5.1,20,17.2,10.7c12.3-9.3,33.4-13,21.8-33.1c-11.3-20.3-3.8-32.5,3.2-33.1
		c7-0.9,55-10.2,56.3-38.3c0.8-15.9-4.7-27.7-8-37.5c3.1-2.1,6-4,8.1-5.4c12.5-8,9.2-17.1,10.4-30.1c0.2-2.5,0.5-4.7,0.9-6.5
		c1.6-0.2,2.8,0.6,3.5,2.8c2.4,8.7-6.5,36.8,4.8,32.5c11.6-4.3,25.1-4.3,25.1-13c0-8.8-2.7-30.5,2.7-36c5.1-5.8,42.6-44.1,47.1-59.2
		c4.6-15.1,13-28.2,5.7-39.7c-7-11.3-19.1-7.8-9.4-22.4c9.4-14.2,25.6-27.6,37.7-28.7c38.8-3.8,27.7,47.8,28.6,59.5
		c0.5,11.6,0.5,40.3,6.4,25.8c5.7-14.2,12.1-31.9,23.7-44.1c11.6-12.5,18.1-20.3,18.6-31.1c0.8-11,1.3-14.5,12.1-20.3
		c11.1-5.8,58.8-26.2,63.3-39.7c4.6-13.7-5.7-25.9,5.7-25c11.6,0.6,22.4,14.2,28.4,7C1820.9,174.2,1833.8,161.2,1833,153.9z"/>
</g>
<path class="st0" d="M1365.6,676.1c3.5-2.6,1-8.7,6.3-7.7c5.3,1.1,10.2,4.4,16.4,0.7c6.3-3.9,11.5-2.2,10.5-8.7
	c-1-6.5,0-15.1-1.4-20.5c-1.5-5.5-10.2-7.2-16.4-1.1c-6.3,5.9-14.8,15.2-14.8,11.8c0-3.1,3.6-11.8,1.8-17.3c-1.8-5.4,1-10.2-8.7-5.9
	c-9.5,4.4-14.8,3.3-18.2,9.2c-3.3,6.1-7.1,16.4-13,9.8c-5.7-6.5-22.5-20.1-22.5-20.1c-1.4-1.7-20.6-18.5-14-7
	c6.7,11.4,16.9,30.8,21.7,37.8c4.7,7.2,10,15.3,15.8,11.6c5.7-3.9,6.7-5,14.4,0C1351.3,673.5,1362.4,678.9,1365.6,676.1
	L1365.6,676.1z M1365.6,676.1"/>
<path class="st0" d="M1483.3,660.8c-9.1-4.4-5.3-8.1-16.2-10.3c-11.1-2.2-20.2,0-23.3-2.2c-2.9-2.2-17.2-7.4-15.2,0
	c1.8,7.7,14.8,9.8,18.3,12c3.2,2.2-4.9,7,1.4,10.9c6.1,3.7,10.5,10.7,18.6,8.5c8.3-2.2,11.1,2.8,17.8,4c6.7,1.1,13.4-1.1,10.5-4.4
	c-2.8-3.3-4.7-7.7-4.3-11.4C1491.6,664.1,1492.5,665.2,1483.3,660.8L1483.3,660.8z M1483.3,660.8"/>
<path class="st0" d="M1478.7,709.3c-3.4-10.9-11.6-31-13.6-21.2c-1.8,9.6-14.8,16.8-19.7,16.1c-4.5-0.4-2-5.5-2-9.8
	s-2.4-8.5-13.4-5.2c-11.1,3.1-13.3,14.6-16.4,13.6c-2.9-1.1-10.5-3.3-15.4,2.6c-4.7,6.1-9.1,17.5-14.8,19.7
	c-5.9,2.2-25.1,4.8-25.1,13.5c0,8.7,4.8,21.6,4.5,28.8c-0.6,7-9.3,23.1,2.4,28.1c6.7,2.8,11.4,3.2,19.3-1.1
	c7.5-4.4,40.7-15.7,45.2-12c4.3,4,11.1,12.9,14.4,14.6c6.1,3.9,7.7,13.1,15.8,15.3c8.1,2.2,14.4,3.2,17.8,3.2
	c3.5,0,15.4-4.4,18.3-12c2.9-7.6,8.1-25.5,10.5-34.2c2.4-8.5,4.9-18.3-2.4-26C1496.9,735.8,1481.9,719.9,1478.7,709.3L1478.7,709.3z
	 M1478.7,709.3"/>
</svg>
